<svg height="16" viewBox="0 0 16 16" width="16" xmlns="http://www.w3.org/2000/svg"><g fill="none"><path d="m0 0h16v16h-16z" fill="#000" opacity="0"/><g fill="#fb3449"><path d="m14.7865413 3.79523573h-1.9715388c-.2816484.56329682-.704121 1.07965222-1.2674179 1.40824204h3.0042497v1.87765604h-13.14359227v-1.87765604h3.00424966c-.56329682-.32858982-.98576942-.84494522-1.26741783-1.40824204h-1.97153883c-.65717962 0-1.17353503.51635543-1.17353503 1.17353504v2.34707004c0 .65717963.51635541 1.17353503 1.17353503 1.17353503h13.61300627c.6571796 0 1.173535-.5163554 1.173535-1.17353503v-2.34707004c0-.65717961-.5163554-1.17353504-1.173535-1.17353504z"/><path d="m11.0781706 3.79523573h-7.93309674c.28164841.56329682.70412102 1.07965222 1.26741783 1.40824204h7.13509291c.5632969-.32858982.9857695-.84494522 1.2674179-1.40824204zm2.0654217 4.69414011v6.10238216h-10.32710824v-6.10238216zm1.408242-1.40824203h-13.14359227v7.51062419c0 .7980038.61023822 1.408242 1.40824203 1.408242h10.32710824c.7980038 0 1.408242-.6102382 1.408242-1.408242z"/><path d="m10.3740496.03992366c-.9857694.1408242-1.87765602.75106242-2.39401143 1.59600764-.5163554-.84494522-1.36130062-1.45518344-2.39401145-1.59600764-.84494522-.14082421-1.59600764.09388279-2.11236305.65717962-.5163554.56329683-.75106242 1.31435922-.65717961 2.11236303.04694141.37553121.18776561.70412102.3285898.98576942h1.73683184c-.32858981-.2816484-.56329681-.70412101-.65717961-1.17353501-.0469414-.32858981 0-.70412102.234707-.93882802s.56329682-.2816484.93882802-.23470701c.79800381.09388279 1.45518344.75106242 1.64294905 1.54906623l.18776559.79800381h.04694141v12.20476427h1.40824203v-12.20476427h.04694139l.18776561-.79800381c.18776561-.79800381.84494522-1.40824203 1.64294901-1.54906623.3285898-.04694141.704121 0 .938828.23470701.2347071.23470702.2816485.56329682.234707.93882802-.0469414.46941401-.3285898.84494522-.6571796 1.17353501h1.7368319c.1408242-.2816484.234707-.61023821.2816484-.98576942.1408242-.79800381-.0938828-1.54906623-.6102382-2.11236303-.5163555-.51635542-1.2674179-.75106242-2.1123631-.65717962z" opacity=".49721"/></g></g></svg>